<?xml version="1.0" encoding="UTF-8" standalone="no"?>
<!DOCTYPE svg PUBLIC "-//W3C//DTD SVG 1.1//EN" "http://www.w3.org/Graphics/SVG/1.1/DTD/svg11.dtd">
<svg width="100%" height="100%" viewBox="0 0 32 32" version="1.1" xmlns="http://www.w3.org/2000/svg" xmlns:xlink="http://www.w3.org/1999/xlink" xml:space="preserve" xmlns:serif="http://www.serif.com/" style="fill-rule:evenodd;clip-rule:evenodd;stroke-linejoin:round;stroke-miterlimit:2;">
    <g transform="matrix(1,0,0,1,-164,0)">
        <g id="pause" transform="matrix(1,0,0,1,82,0)">
            <rect x="82" y="0" width="32" height="32" style="fill:none;"/>
            <g transform="matrix(0.28125,0,0,0.295455,84.875,1.818182)">
                <path d="M34,92L6,92C4.896,92 4,91.104 4,90L4,6C4,4.896 4.896,4 6,4L34,4C35.104,4 36,4.896 36,6L36,90C36,91.104 35.104,92 34,92Z" style="fill-rule:nonzero;"/>
            </g>
            <g transform="matrix(0.28125,0,0,0.295455,84.125,1.818182)">
                <path d="M90,92L62,92C60.9,92 60,91.104 60,90L60,6C60,4.896 60.9,4 62,4L90,4C91.1,4 92,4.896 92,6L92,90C92,91.104 91.1,92 90,92Z" style="fill-rule:nonzero;"/>
            </g>
        </g>
    </g>
</svg>
