<?xml version="1.0" encoding="UTF-8" standalone="no"?>
<!DOCTYPE svg PUBLIC "-//W3C//DTD SVG 1.1//EN" "http://www.w3.org/Graphics/SVG/1.1/DTD/svg11.dtd">
<svg width="100%" height="100%" viewBox="0 0 32 32" version="1.1" xmlns="http://www.w3.org/2000/svg" xmlns:xlink="http://www.w3.org/1999/xlink" xml:space="preserve" xmlns:serif="http://www.serif.com/" style="fill-rule:evenodd;clip-rule:evenodd;stroke-linejoin:round;stroke-miterlimit:2;">
    <g transform="matrix(1,0,0,1,-82,0)">
        <g id="play" transform="matrix(1,0,0,1,82,0)">
            <rect x="0" y="0" width="32" height="32" style="fill:none;"/>
            <g transform="matrix(0.265394,0,0,0.265394,2.857663,3.261264)">
                <path d="M9.896,96C9.56,96 9.22,95.916 8.912,95.748C8.28,95.393 7.896,94.721 7.896,94L7.896,2C7.896,1.28 8.284,0.612 8.912,0.256C9.54,-0.096 10.312,-0.088 10.928,0.288L87.141,46.28C87.737,46.64 88.108,47.288 88.108,47.992C88.108,48.695 87.741,49.344 87.141,49.704L10.924,95.716C10.612,95.908 10.252,96 9.896,96Z" style="fill-rule:nonzero;"/>
            </g>
        </g>
    </g>
</svg>
