<?xml version="1.0" encoding="UTF-8" standalone="no"?>
<!DOCTYPE svg PUBLIC "-//W3C//DTD SVG 1.1//EN" "http://www.w3.org/Graphics/SVG/1.1/DTD/svg11.dtd">
<svg width="100%" height="100%" viewBox="0 0 32 32" version="1.1" xmlns="http://www.w3.org/2000/svg" xmlns:xlink="http://www.w3.org/1999/xlink" xml:space="preserve" xmlns:serif="http://www.serif.com/" style="fill-rule:evenodd;clip-rule:evenodd;stroke-linejoin:round;stroke-miterlimit:2;">
    <g id="refresh" transform="matrix(1,0,0,1,82,0)">
        <rect x="-82" y="0" width="32" height="32" style="fill:none;"/>
        <g transform="matrix(0.273645,0,0,0.273645,-80.00693,0.310559)">
            <g>
                <path d="M79.7,58.7C78.6,74.5 65.2,86.9 49.1,86.4C33.6,85.9 20.7,73.1 20.2,57.6C19.7,40.9 33,27.1 49.5,26.9L49.5,38C49.5,39.7 51.4,40.8 52.9,39.8L77.6,23.2C78.9,22.3 78.9,20.5 77.6,19.6L52.9,2.9C51.5,1.9 49.5,3 49.5,4.7L49.5,15.8C26.7,16 8.2,35.2 9.2,58.4C10.1,79.4 27.4,96.7 48.4,97.5C70.9,98.4 89.7,80.9 90.9,58.9C91,57.7 89.9,56.7 88.7,56.7L81.9,56.7C80.7,56.6 79.8,57.5 79.7,58.7Z" style="fill-rule:nonzero;"/>
            </g>
        </g>
    </g>
</svg>
