<?xml version="1.0" encoding="UTF-8" standalone="no"?>
<!DOCTYPE svg PUBLIC "-//W3C//DTD SVG 1.1//EN" "http://www.w3.org/Graphics/SVG/1.1/DTD/svg11.dtd">
<svg width="100%" height="100%" viewBox="0 0 826 512" version="1.1" xmlns="http://www.w3.org/2000/svg" xmlns:xlink="http://www.w3.org/1999/xlink" xml:space="preserve" xmlns:serif="http://www.serif.com/" style="fill-rule:evenodd;clip-rule:evenodd;stroke-linejoin:round;stroke-miterlimit:2;">
    <g transform="matrix(1,0,0,1,-1430.143443,-998.88719)">
        <path d="M1445.363,1210.809C1441.803,1211.012 1438.643,1209.127 1435.885,1205.157C1433.126,1201.186 1431.371,1196.602 1430.62,1191.405C1430.267,1188.959 1430.11,1186.524 1430.149,1184.099C1430.189,1181.675 1430.535,1179.479 1431.187,1177.512C1431.839,1175.545 1432.77,1173.889 1433.98,1172.544C1435.19,1171.199 1436.712,1170.393 1438.547,1170.128C1444.202,1169.311 1450.671,1168.181 1457.953,1166.738C1465.235,1165.296 1473.047,1163.738 1481.388,1162.064C1485.602,1160.987 1487.606,1158.122 1487.402,1153.47C1485.574,1131.107 1484.724,1111.723 1484.849,1095.319C1484.975,1078.916 1485.995,1064.919 1487.91,1053.328C1489.824,1041.738 1492.538,1032.177 1496.053,1024.647C1499.568,1017.117 1503.812,1011.12 1508.785,1006.656C1510.29,1005.19 1512.095,1003.641 1514.2,1002.011C1516.305,1000.38 1518.351,999.421 1520.338,999.134C1524.16,998.581 1528.31,998.957 1532.79,1000.26C1537.27,1001.563 1541.521,1003.446 1545.544,1005.907C1549.567,1008.369 1552.996,1011.306 1555.83,1014.72C1558.664,1018.134 1560.346,1021.675 1560.877,1025.343C1561.075,1026.719 1560.93,1027.872 1560.44,1028.801C1559.95,1029.73 1559.302,1030.643 1558.495,1031.54C1553.174,1036.834 1548.619,1042.564 1544.828,1048.73C1541.038,1054.896 1538.112,1062.185 1536.051,1070.597C1533.989,1079.01 1532.695,1088.95 1532.168,1100.418C1531.641,1111.886 1531.98,1125.57 1533.185,1141.469C1533.539,1143.915 1534.219,1145.65 1535.225,1146.675C1536.232,1147.7 1537.881,1148.047 1540.174,1147.715C1546.136,1146.854 1552.069,1145.528 1557.975,1143.738C1563.88,1141.948 1569.512,1140.159 1574.872,1138.37C1580.231,1136.581 1585.29,1134.875 1590.049,1133.25C1594.808,1131.626 1599.098,1130.538 1602.92,1129.986C1605.671,1129.588 1607.934,1130.939 1609.708,1134.037C1611.483,1137.136 1612.712,1141.055 1613.397,1145.793C1613.795,1148.545 1613.974,1151.406 1613.935,1154.376C1613.896,1157.347 1613.546,1160.051 1612.884,1162.487C1612.222,1164.923 1611.242,1167.055 1609.946,1168.881C1608.649,1170.707 1606.876,1171.938 1604.628,1172.575L1544.565,1187.81C1541.421,1188.733 1539.66,1190.314 1539.281,1192.553C1538.903,1194.793 1538.99,1197.823 1539.542,1201.645C1544.425,1235.427 1549.463,1264.348 1554.657,1288.41C1559.851,1312.471 1564.679,1332.646 1569.139,1348.933C1573.6,1365.219 1577.362,1378.018 1580.424,1387.329C1583.486,1396.64 1585.327,1403.435 1585.945,1407.715C1586.409,1410.925 1585.568,1414.012 1583.421,1416.975C1581.275,1419.938 1578.385,1422.618 1574.752,1425.016C1571.119,1427.414 1567.082,1429.441 1562.64,1431.097C1558.198,1432.753 1553.989,1433.869 1550.015,1434.443C1546.193,1434.996 1542.698,1434.837 1539.53,1433.969C1536.361,1433.1 1534.327,1431.171 1533.426,1428.18C1530.351,1417.701 1527.356,1406.157 1524.442,1393.547C1521.527,1380.938 1518.604,1366.926 1515.674,1351.51C1512.744,1336.094 1509.795,1319.199 1506.827,1300.824C1503.859,1282.448 1500.784,1262.255 1497.603,1240.243L1495.217,1223.734C1494.444,1218.384 1493.823,1213.012 1493.356,1207.618C1492.693,1203.032 1489.839,1201.104 1484.795,1201.833L1445.363,1210.809ZM1683.885,1118.495C1684.061,1119.247 1684.393,1122.698 1684.881,1128.85C1685.37,1135.001 1685.944,1142.877 1686.605,1152.477C1687.266,1162.078 1688.056,1173.076 1688.975,1185.471C1689.894,1197.867 1690.852,1210.768 1691.849,1224.177C1692.846,1237.585 1693.953,1251.126 1695.171,1264.799C1696.389,1278.473 1697.619,1291.351 1698.861,1303.432C1700.103,1315.514 1701.39,1326.435 1702.723,1336.196C1704.056,1345.956 1705.392,1353.694 1706.729,1359.408C1708.032,1364.973 1707.458,1369.469 1705.009,1372.897C1702.56,1376.326 1698.704,1378.656 1693.44,1379.888C1688.027,1381.155 1683.363,1381.732 1679.45,1381.616C1675.537,1381.501 1672.151,1380.589 1669.292,1378.879C1666.433,1377.169 1664.075,1374.548 1662.217,1371.017C1660.36,1367.487 1658.797,1363.014 1657.53,1357.601C1656.298,1352.337 1654.955,1345.077 1653.502,1335.821C1652.049,1326.564 1650.58,1315.884 1649.095,1303.78C1647.61,1291.675 1646.084,1278.55 1644.518,1264.403C1642.951,1250.255 1641.409,1235.706 1639.892,1220.754C1638.375,1205.802 1636.915,1190.757 1635.513,1175.62C1634.111,1160.482 1632.821,1145.993 1631.643,1132.151C1631.339,1127.464 1631.408,1123.522 1631.849,1120.325C1632.291,1117.129 1633.211,1114.455 1634.611,1112.303C1636.011,1110.151 1637.976,1108.382 1640.507,1106.997C1643.038,1105.611 1646.108,1104.496 1649.717,1103.651C1660.094,1101.222 1667.925,1101.134 1673.211,1103.387C1678.497,1105.639 1682.055,1110.675 1683.885,1118.495ZM1727.331,1283.402C1727.331,1280.777 1727.64,1277.842 1728.258,1274.599C1728.876,1271.356 1729.185,1267.803 1729.185,1263.942C1729.185,1261.316 1728.065,1259.309 1725.825,1257.919C1723.586,1256.529 1721.076,1254.984 1718.296,1253.285C1715.516,1251.586 1713.006,1249.424 1710.767,1246.798C1708.527,1244.173 1707.408,1240.389 1707.408,1235.447C1707.408,1231.894 1708.373,1228.342 1710.304,1224.79C1712.234,1221.237 1715.053,1217.994 1718.76,1215.06C1727.872,1208.264 1737.332,1202.163 1747.139,1196.758C1756.947,1191.352 1766.754,1186.796 1776.561,1183.089C1786.369,1179.382 1796.06,1176.525 1805.636,1174.517C1815.212,1172.509 1824.401,1171.505 1833.205,1171.505C1848.032,1171.505 1861.971,1174.247 1875.022,1179.73C1888.072,1185.213 1899.424,1192.703 1909.077,1202.202C1918.73,1211.7 1926.375,1222.82 1932.013,1235.562C1937.65,1248.304 1940.469,1261.934 1940.469,1276.452C1940.469,1290.661 1937.495,1304.137 1931.549,1316.879C1925.603,1329.621 1917.61,1340.78 1907.571,1350.355C1897.532,1359.931 1885.756,1367.538 1872.241,1373.175C1858.727,1378.812 1844.48,1381.631 1829.498,1381.631C1814.826,1381.631 1801.234,1379.16 1788.724,1374.217C1776.214,1369.275 1765.403,1362.441 1756.29,1353.715C1747.178,1344.988 1740.073,1334.64 1734.976,1322.671C1729.88,1310.701 1727.331,1297.612 1727.331,1283.402ZM1834.595,1339.93C1841.082,1339.93 1847.8,1338.617 1854.75,1335.992C1861.7,1333.366 1868.071,1329.544 1873.863,1324.524C1879.655,1319.504 1884.443,1313.365 1888.227,1306.106C1892.011,1298.847 1893.903,1290.661 1893.903,1281.549C1893.903,1272.282 1892.204,1263.633 1888.806,1255.602C1885.408,1247.571 1880.736,1240.582 1874.79,1234.636C1868.844,1228.689 1861.816,1224.017 1853.708,1220.62C1845.599,1217.222 1836.834,1215.523 1827.413,1215.523C1810.27,1215.523 1797.141,1219.963 1788.029,1228.844C1778.917,1237.725 1774.361,1251.355 1774.361,1269.734C1774.361,1279.773 1775.866,1289.078 1778.878,1297.65C1781.89,1306.222 1786.099,1313.635 1791.504,1319.891C1796.91,1326.146 1803.281,1331.049 1810.617,1334.602C1817.953,1338.154 1825.946,1339.93 1834.595,1339.93ZM1957.872,1184.133C1959.423,1178.313 1963.218,1174.569 1969.256,1172.901C1975.295,1171.233 1983.164,1171.692 1992.865,1174.276C1995.104,1174.873 1997.039,1175.708 1998.671,1176.782C2000.303,1177.856 2001.599,1179.44 2002.559,1181.534C2003.52,1183.628 2004.199,1186.327 2004.598,1189.63C2004.997,1192.933 2005.177,1197.056 2005.138,1202.001C2004.94,1207.542 2005.439,1210.472 2006.632,1210.79C2007.677,1211.069 2009.522,1209.243 2012.168,1205.312C2017.121,1197.521 2022.643,1191.041 2028.736,1185.871C2034.828,1180.701 2041.202,1176.725 2047.857,1173.943C2054.512,1171.161 2061.364,1169.59 2068.413,1169.23C2075.461,1168.87 2082.568,1169.645 2089.731,1171.553C2104.207,1175.41 2116.988,1181.732 2128.073,1190.519C2139.158,1199.307 2147.97,1209.726 2154.509,1221.778C2161.048,1233.829 2165.19,1247.08 2166.934,1261.53C2168.679,1275.981 2167.523,1290.817 2163.467,1306.04C2159.173,1322.158 2152.399,1336.336 2143.144,1348.575C2133.889,1360.815 2122.94,1370.564 2110.297,1377.825C2097.654,1385.086 2083.684,1389.675 2068.388,1391.594C2053.092,1393.512 2037.236,1392.285 2020.82,1387.911L2009.522,1384.421C2002.806,1382.632 1998.434,1385.543 1996.406,1393.154L1980.448,1498.949C1979.622,1501.446 1978.138,1503.568 1975.994,1505.315C1973.851,1507.061 1971.255,1508.407 1968.205,1509.353C1965.156,1510.299 1961.759,1510.752 1958.013,1510.713C1954.267,1510.675 1950.529,1510.158 1946.798,1509.164C1936.053,1506.301 1931.167,1501.243 1932.14,1493.99C1936.243,1465.993 1939.651,1439.25 1942.367,1413.761C1945.082,1388.271 1947.275,1364.441 1948.947,1342.27C1950.618,1320.098 1951.894,1299.86 1952.776,1281.553C1953.657,1263.247 1954.352,1247.289 1954.861,1233.679C1955.371,1220.069 1955.841,1209.006 1956.272,1200.49C1956.703,1191.973 1957.236,1186.521 1957.872,1184.133ZM2014.882,1262.617C2012.297,1272.317 2010.116,1282.006 2008.337,1291.681C2006.558,1301.357 2005.019,1311.935 2003.718,1323.417C2002.824,1330.371 2005.467,1335.151 2011.646,1337.756C2015.287,1339.685 2019.424,1341.706 2024.056,1343.819C2028.687,1345.933 2032.645,1347.426 2035.928,1348.301C2045.479,1350.846 2054.513,1351.734 2063.029,1350.966C2071.545,1350.198 2079.27,1347.901 2086.203,1344.074C2093.137,1340.247 2099.07,1335.075 2104.003,1328.557C2108.936,1322.04 2112.596,1314.304 2114.982,1305.349C2117.884,1294.455 2119.105,1283.871 2118.646,1273.599C2118.186,1263.327 2116.316,1253.998 2113.036,1245.612C2109.755,1237.226 2105.182,1230.094 2099.316,1224.215C2093.45,1218.337 2086.487,1214.324 2078.428,1212.177C2071.414,1210.308 2064.626,1210.138 2058.066,1211.667C2051.505,1213.195 2045.447,1216.136 2039.891,1220.49C2034.336,1224.844 2029.405,1230.603 2025.099,1237.767C2020.792,1244.931 2017.387,1253.215 2014.882,1262.617ZM2201.056,1108.508C2200.852,1106.268 2200.718,1104.278 2200.655,1102.537C2200.592,1100.796 2200.719,1099.09 2201.036,1097.421C2201.841,1093.172 2203.845,1089.858 2207.047,1087.478C2210.249,1085.098 2214.505,1084.412 2219.816,1085.419C2243.337,1089.877 2255.171,1097.937 2255.319,1109.597C2255.346,1124.379 2255.132,1139.193 2254.676,1154.041C2254.219,1168.888 2253.461,1183.875 2252.402,1199C2251.342,1214.126 2249.86,1229.408 2247.956,1244.845C2246.052,1260.283 2243.589,1275.968 2240.569,1291.901C2239.994,1294.936 2239.288,1297.829 2238.453,1300.578C2237.617,1303.328 2236.536,1305.717 2235.208,1307.745C2233.88,1309.772 2232.291,1311.318 2230.438,1312.382C2228.586,1313.445 2226.294,1313.718 2223.563,1313.201L2204.961,1306.845C2201.102,1305.642 2198.555,1303.941 2197.322,1301.742C2196.088,1299.543 2195.65,1296.67 2196.008,1293.122C2200.058,1265.123 2202.531,1235.488 2203.428,1204.219C2204.325,1172.949 2203.534,1141.046 2201.056,1108.508ZM2194.833,1397.593C2190.432,1396.759 2186.42,1395.33 2182.795,1393.307C2179.17,1391.283 2176.176,1388.83 2173.815,1385.946C2171.454,1383.061 2169.74,1379.868 2168.675,1376.365C2167.61,1372.862 2167.437,1369.213 2168.156,1365.42C2169.364,1359.046 2172.884,1354.369 2178.715,1351.387C2184.546,1348.405 2191.711,1347.72 2200.209,1349.331C2204.154,1350.078 2207.811,1351.518 2211.18,1353.65C2214.548,1355.782 2217.406,1358.328 2219.753,1361.288C2222.1,1364.248 2223.799,1367.518 2224.85,1371.097C2225.901,1374.676 2226.095,1378.21 2225.434,1381.7C2224.197,1388.225 2220.836,1392.894 2215.351,1395.705C2209.867,1398.517 2203.027,1399.146 2194.833,1397.593Z" style="fill:rgb(155,255,2);"/>
    </g>
</svg>
